<svg xmlns="http://www.w3.org/2000/svg" width="48" height="48" fill="none" viewBox="0 0 48 48">
  <defs>
    <linearGradient id="tile" x1="4" y1="2" x2="44" y2="48" gradientUnits="userSpaceOnUse">
      <stop stop-color="#304867"/>
      <stop offset="1" stop-color="#111c32"/>
    </linearGradient>
    <linearGradient id="case" x1="11" y1="10" x2="37" y2="39" gradientUnits="userSpaceOnUse">
      <stop stop-color="#fff"/>
      <stop offset="1" stop-color="#c9d8e8"/>
    </linearGradient>
    <radialGradient id="red">
      <stop stop-color="#ffe3ed"/>
      <stop offset=".38" stop-color="#ff648b"/>
      <stop offset="1" stop-color="#ff3268" stop-opacity="0"/>
    </radialGradient>
    <radialGradient id="green">
      <stop stop-color="#e0fff0"/>
      <stop offset=".38" stop-color="#5ef5ac"/>
      <stop offset="1" stop-color="#19df99" stop-opacity="0"/>
    </radialGradient>
    <radialGradient id="blue">
      <stop stop-color="#e1f3ff"/>
      <stop offset=".38" stop-color="#72b9ff"/>
      <stop offset="1" stop-color="#4478ff" stop-opacity="0"/>
    </radialGradient>
  </defs>
  <rect x=".5" y=".5" width="47" height="47" rx="14" fill="url(#tile)" stroke="#7b9dc1" stroke-opacity=".35"/>
  <path stroke="#e9c77e" stroke-linecap="round" stroke-width="3" d="M6 18h5M6 30h5M37 18h5M37 30h5"/>
  <rect x="9" y="9" width="30" height="30" rx="8" fill="url(#case)"/>
  <circle cx="24" cy="24" r="11.5" fill="#1b2c45" stroke="#98adc5"/>
  <circle cx="20" cy="21" r="8" fill="url(#red)"/>
  <circle cx="28" cy="21" r="8" fill="url(#green)"/>
  <circle cx="24" cy="28" r="8" fill="url(#blue)"/>
  <circle cx="20" cy="21" r="2" fill="#ffd3e0"/>
  <circle cx="28" cy="21" r="2" fill="#cdffe5"/>
  <circle cx="24" cy="28" r="2" fill="#d2eaff"/>
  <path stroke="#fff" stroke-linecap="round" stroke-opacity=".65" stroke-width="1.5" d="M16 17a10 10 0 0 1 8-4"/>
  <path fill="#8095ae" d="m11 33 4 4h-4z"/>
</svg>
